<?xml version="1.0" encoding="utf-8"?>
<!-- Generator: Adobe Illustrator 19.1.0, SVG Export Plug-In . SVG Version: 6.00 Build 0)  -->
<svg version="1.1" id="Layer_1" xmlns="http://www.w3.org/2000/svg" xmlns:xlink="http://www.w3.org/1999/xlink" x="0px" y="0px"
	 width="626px" height="90px" viewBox="200 5 626 90" style="enable-background:new 200 5 626 90;" xml:space="preserve">
<style type="text/css">
	.st0{fill:#404041;fill-opacity:0;}
	.st1{fill:#C92027;}
	.st2{fill:#F9AC3B;}
	.st3{fill:#FAAE3C;}
	.st4{fill:#C6CB43;}
	.st5{fill:#C7CC43;}
	.st6{fill:#80A342;}
	.st7{fill:#80A442;}
	.st8{fill:#EF432A;}
	.st9{fill:#404041;}
	.st10{fill:#066FD3;}
</style>
<g id="_x3C_Layer_x3E_">
</g>
<g id="Back_Back_Lock">
</g>
<g id="Layer_1_1_">
</g>
<g id="Menu">
</g>
<g id="Isolation_Mode">
</g>
<rect x="693.1" y="6.4" class="st0" width="82.2" height="82.2"/>
<rect x="200" y="6.4" class="st0" width="82.2" height="82.2"/>
<rect x="282.2" y="6.4" class="st0" width="82.2" height="82.2"/>
<rect x="364.4" y="6.4" class="st0" width="82.2" height="82.2"/>
<rect x="446.6" y="6.4" class="st0" width="82.2" height="82.2"/>
<rect x="528.7" y="6.4" class="st0" width="82.2" height="82.2"/>
<rect x="610.9" y="6.4" class="st0" width="82.2" height="82.2"/>
<g>
	<path class="st1" d="M265.8,41.9v3h-7.1V66h-35.3V44.9h-7.1v-3l25.6-19.5l9.7,8V26h7.1v10.1L265.8,41.9z M252.3,53.3l-5.2-5.2
		l5.2-5.2l-5.4-5.4l-5.2,5.2l-5.2-5.2l-5.4,5.4l5.2,5.2l-5.2,5.2l5.4,5.4l5.2-5.2l5.2,5.2L252.3,53.3z"/>
	<path class="st1" d="M241.1,85.4c-20.9,0-37.9-17-37.9-37.9s17-37.9,37.9-37.9s37.9,17,37.9,37.9S262,85.4,241.1,85.4z M241.1,15.1
		c-17.8,0-32.4,14.5-32.4,32.4s14.5,32.4,32.4,32.4s32.4-14.5,32.4-32.4S258.9,15.1,241.1,15.1z"/>
</g>
<g>
	<path class="st2" d="M430.2,42.1v3h-7.1v21.2h-35.3V45h-7.1v-3l22.7-17.3l2-1.6l0.9-0.7l0.8,0.7l0.9,0.8l8,6.4v-4.3h7.1v10.1
		L430.2,42.1z M418.3,53.3c0.6-0.6,0.8-1.6,0.4-2.3c-0.2-0.4-0.4-0.8-0.8-1.1c-2.8-3.2-5.7-6.3-8.5-9.5c-0.6-0.7-1.3-1.5-2-2.1
		c-0.5-0.6-1.1-0.9-1.8-1.1c-0.6-0.2-1.2-0.3-1.8-0.3c-2.3,0-4.6,0-6.9,0c-1.1,0-1.9,0.9-2,1.8v0.1c0,2.6,0,5.2,0,7.8
		c0.1,0.2,0.1,0.4,0.1,0.6c0.2,0.9,0.6,1.6,1.2,2.3c0.8,0.9,1.6,1.9,2.5,2.8c2.3,2.6,4.6,5.2,7,7.8c0.5,0.6,0.9,1.1,1.5,1.6
		c0.4,0.4,1,0.6,1.6,0.6c0.5-0.1,0.9-0.3,1.3-0.7C412.9,58.8,415.6,56,418.3,53.3z"/>
	<path class="st2" d="M401.9,42c0,0.8-0.7,1.8-1.8,1.8c-1,0-1.9-0.8-1.9-1.8c0-1,0.8-1.8,1.9-1.9C400.8,40.1,401.9,40.8,401.9,42z"
		/>
	<path class="st3" d="M405.5,85.4c-20.9,0-37.9-17-37.9-37.9s17-37.9,37.9-37.9s37.9,17,37.9,37.9S426.4,85.4,405.5,85.4z
		 M405.5,15.1c-17.8,0-32.4,14.5-32.4,32.4s14.5,32.4,32.4,32.4s32.4-14.5,32.4-32.4S423.3,15.1,405.5,15.1z"/>
</g>
<g>
	<path class="st4" d="M511.8,40.4v1.8h-5.6h-1.1v0.5v9.1v1.8v12.1h-35.3v-6.2c0,1.5,3.7,3,6.1,3c0.6,0,1.3-0.1,1.9-0.3
		c3.2-0.8,5.8-3.7,6.6-5.8h3.9h11.3l0.3-0.7l1.3-2.7l-1.6-3.9l-0.1-0.2h-2.8h-0.1v-3.4h-3.3l0,0V49h-2.5v-3.4H490h-2.5v2.9V49h-3.8
		c-1.2-1.5-3.3-3.7-5.9-4.6c-0.6-0.2-1.3-0.3-1.9-0.3c-2.4,0-6.1,0.8-6.1,2.3v-3.8V42h-1.4h-6.1v-1.8l24.8-20.5l9.5,8.2l0.7,0.6
		v-2.8V23h7.6V34L511.8,40.4z"/>
	<path class="st4" d="M478.1,49.8c1.7,1.2,2.1,3.6,0.9,5.4c-0.4,0.6-1,1.1-1.7,1.4c-1.2,0.5-2.6,0.4-3.7-0.4
		c-1.8-1.2-2.3-3.7-1.1-5.4c1.2-1.8,3.7-2.3,5.4-1.1C478,49.8,478,49.8,478.1,49.8z"/>
	<path class="st5" d="M487.6,85.4c-20.9,0-37.9-17-37.9-37.9s17-37.9,37.9-37.9s37.9,17,37.9,37.9S508.6,85.4,487.6,85.4z
		 M487.6,15.1c-17.8,0-32.4,14.5-32.4,32.4s14.5,32.4,32.4,32.4S520,65.3,520,47.5S505.5,15.1,487.6,15.1z"/>
</g>
<g>
	<path class="st6" d="M594.6,42.1v3h-7v17.1L574.4,49l2.4-2.4c0.3-0.3,0.3-0.9,0-1.2l-5.9-5.9c-0.3-0.3-0.9-0.3-1.2,0l-7.1,7.1
		c-0.3,0.3-0.3,0.9,0,1.2l5.9,5.9c0.3,0.3,0.9,0.3,1.2,0l2.4-2.4L586,65.3c0.4,0.4,1.1,0.6,1.6,0.4v0.5h-35.3V45h-7.1v-3l25.6-19.5
		l9.7,8v-4.3h7v10.1L594.6,42.1z M579.4,43.9c0.8-0.8,0.8-1.9,0-2.7l-4.8-4.8c-0.8-0.8-1.9-0.8-2.7,0c-0.8,0.8-0.8,1.9,0,2.7
		l4.8,4.8C577.5,44.7,578.7,44.7,579.4,43.9z M567.2,56.8c0.8-0.8,0.8-1.9,0-2.7l-4.8-4.8c-0.8-0.8-1.9-0.8-2.7,0
		c-0.8,0.8-0.8,1.9,0,2.7l4.8,4.8C565.2,57.6,566.4,57.6,567.2,56.8z"/>
	<path class="st7" d="M569.8,85.4c-20.9,0-37.9-17-37.9-37.9s17-37.9,37.9-37.9s37.9,17,37.9,37.9S590.8,85.4,569.8,85.4z
		 M569.8,15.1c-17.8,0-32.4,14.5-32.4,32.4s14.5,32.4,32.4,32.4s32.4-14.5,32.4-32.4S587.7,15.1,569.8,15.1z"/>
</g>
<g>
	<g>
		<path class="st8" d="M340.7,35.9c-0.1,1.3-0.4,2.5-0.8,3.8c2.4,3.4,3.8,7.4,3.8,11.8c0,11.3-9.1,20.4-20.4,20.4
			c-11.3,0-20.4-9.2-20.4-20.4c0-4.7,1.6-9,4.2-12.4c-0.4-1.2-0.6-2.5-0.7-3.8c-4,4.2-6.6,9.9-6.6,16.2c0,12.9,10.5,23.4,23.4,23.4
			c12.9,0,23.4-10.5,23.4-23.4C346.7,45.5,344.4,40,340.7,35.9z"/>
		<path class="st8" d="M323.3,67.7c8.1,0,14.6-6.6,14.6-14.6c0-2.5-0.6-4.7-1.7-6.8c-0.5,0.7-1.1,1.4-1.6,2l-0.5,0.6
			c0.5,1.3,0.8,2.7,0.8,4.1c0,6.4-5.2,11.6-11.6,11.6c-6.4,0-11.6-5.2-11.6-11.6c0-1.7,0.4-3.3,1-4.7c-0.1-0.1-0.1-0.1-0.1-0.1
			c-0.8-0.9-1.4-1.7-2-2.5c-1.3,2.1-2,4.7-2,7.4C308.7,61.1,315.2,67.7,323.3,67.7z"/>
		<path class="st8" d="M312.6,42.6c0.1,0.1,0.1,0.2,0.2,0.3c0.6,0.9,1.2,1.7,1.8,2.5c0.2,0.3,0.4,0.4,0.6,0.7
			c1.4,1.7,2.7,3.4,4.1,5.2c0.6,0.8,1.3,1.6,2,2.4c0.4,0.4,0.8,0.9,1.2,1.4c0.3,0.4,0.7,0.8,1.2,0.8c0.3,0.1,0.6-0.1,0.9-0.2
			c0.8-0.4,1.3-1.3,1.8-2c0.6-0.9,1.2-1.7,1.9-2.6c1.1-1.3,2.1-2.7,3.2-3.9c0.3-0.4,0.7-0.8,1-1.3c0.6-0.8,1.2-1.5,1.7-2.3
			c0.1-0.1,0.1-0.1,0.1-0.2c1.4-2,2.6-4.3,3-6.7c0.1-0.4,0.1-0.8,0.2-1.1c0-0.3,0.1-0.6,0.1-0.8c0-0.6-0.1-1.3-0.1-2
			c-0.9-6.8-6.8-11.9-13.7-11.9c-6.8,0-12.5,4.9-13.7,11.4c-0.1,0.8-0.2,1.6-0.2,2.5c0,0.5,0.1,1,0.1,1.5
			C310.2,38.5,311.3,40.7,312.6,42.6z M329.4,34c0,2-1,3.8-2.5,4.8c-0.9,0.6-2,1-3.3,1c-1.3,0-2.5-0.4-3.4-1.1
			c-1.5-1.1-2.4-2.8-2.4-4.7c0-0.8,0.2-1.6,0.5-2.3c0.9-2,2.9-3.5,5.3-3.5c2.5,0,4.6,1.5,5.4,3.7C329.2,32.6,329.4,33.3,329.4,34z"
			/>
	</g>
	<path class="st8" d="M323.3,9.6c-20.9,0-37.9,17-37.9,37.9s17,37.9,37.9,37.9c20.9,0,37.9-17,37.9-37.9S344.2,9.6,323.3,9.6z
		 M323.3,79.9c-17.8,0-32.4-14.5-32.4-32.4s14.5-32.4,32.4-32.4c17.8,0,32.4,14.5,32.4,32.4S341.1,79.9,323.3,79.9z"/>
</g>
<g>
	<path class="st9" d="M652,85.4c-20.9,0-37.9-17-37.9-37.9s17-37.9,37.9-37.9c20.9,0,37.9,17,37.9,37.9S672.9,85.4,652,85.4z
		 M652,15.1c-17.8,0-32.4,14.5-32.4,32.4s14.5,32.4,32.4,32.4c17.8,0,32.4-14.5,32.4-32.4S669.8,15.1,652,15.1z"/>
	<path class="st9" d="M667.5,34.9c4.4,0.8,7.6,4.6,7.6,9.2c0,5.2-4.2,9.4-9.4,9.4h-8l-3.9,4.4h5.2l-16.4,14.7l4.1-9.9l-7.6-0.1
		l5.4-9.2h-6.4c-5.2,0-9.4-4.2-9.4-9.4c0-4.6,3.4-8.5,7.8-9.2c-0.1-0.4-0.1-0.8-0.1-1.1c0-3.1,2.5-5.6,5.6-5.6
		c1.5,0,2.8,0.6,3.8,1.5c1.6-4.2,5.7-7.2,10.5-7.2c6.2,0,11.2,5,11.2,11.2C667.6,34.1,667.6,34.5,667.5,34.9z M666.6,43.7
		c0.1-0.6,0.1-2.4-0.7-3.5c-0.7-1.1-5.8-4.6-13.4-4.6c-7.6-0.1-12.7,3.5-13.4,4.6c-0.7,1.1-0.8,2.9-0.7,3.5c0.1,0.6,1.3,2.1,1.3,2.1
		s0.5,0.1,0.6,0.1c0.1,0,5.2-1.2,5.2-1.2l0.4-0.6l-0.1-3.5l0.4-0.3c0.1-0.1,0.4-0.1,0.5-0.1c0.4-0.1,0.9-0.2,1.3-0.3
		c2-0.4,4-0.4,6.1-0.3c0.6,0.1,1.2,0.1,1.8,0.2c0.5,0.1,1,0.1,1.5,0.3c0.4,0.1,0.7,0.1,1.1,0.3c0.1,0,0.2,0.1,0.3,0.1l0.4,0.3
		l-0.1,3.5l0.4,0.6c0,0,5.2,1.2,5.2,1.2c0.1,0,0.6-0.1,0.6-0.1S666.4,44.3,666.6,43.7z"/>
</g>
<g>
	<g>
		<g>
			<path class="st10" d="M756.3,47.9c-0.4-1.3-0.9-2.5-1.5-3.7c-1.3-2.4-3-4.4-5.2-6c-4.2-3.1-10.1-4.6-14.8-2
				c-1.1,0.6-2.1,1.5-3,2.5c-0.8,1-1.5,2.1-1.8,3.4c-0.1,0.6-0.2,1.3-0.1,2c0.1,0.6,0.4,1.3,0.8,1.8c0.8,0.9,1.8,1.5,3,1.8
				c-0.8,0.8-1.8,1.4-2.8,1.5c-1.2,0.2-2.3-0.4-3.2-1.2c-0.9-0.8-1.5-1.9-1.8-3c-0.4-1.1-0.6-2.3-0.4-3.5c0.3-2.4,1.3-4.6,3-6.3
				c1.6-1.7,3.7-3,5.9-3.7c2.2-0.8,4.6-0.9,6.9-0.7c2.2,0.3,4.5,1.2,6.6,2.2c2,1.1,3.8,2.6,5.3,4.3c0.8,0.8,1.5,1.8,2.1,2.7
				c0.3,0.5,0.6,0.9,0.9,1.5c0.3,0.5,0.5,1,0.6,1.4l4.5-2c-0.4-0.8-0.8-1.3-1.1-1.9c-0.4-0.6-0.8-1.1-1.2-1.6c-0.9-1.1-1.8-2-2.8-3
				c-2-1.8-4.2-3.4-6.8-4.5c-1.3-0.5-2.5-0.9-3.8-1.3c-1.3-0.3-2.7-0.5-4-0.6c-2.7-0.1-5.4,0.4-7.8,1.5c-4.8,2-9,6.4-9.2,11.8
				c-0.1,1.3,0.2,2.6,0.6,3.8c0.4,1.2,1.1,2.4,2.1,3.2c0.5,0.4,1.1,0.8,1.6,1c0.6,0.3,1.3,0.3,2,0.2c1.2-0.2,2.2-0.8,3-1.6
				c0.3,1.1,0.3,2.2-0.1,3.2c-0.4,1.1-1.5,1.8-2.7,2.1c-1.1,0.3-2.3,0.3-3.5,0.1c-1.1-0.3-2.3-0.7-3.3-1.4c-2-1.4-3.4-3.5-4-5.8
				c-0.7-2.2-0.7-4.7-0.2-7c0.4-2.3,1.5-4.5,2.8-6.3c1.4-1.8,3.3-3.4,5.2-4.6c1.9-1.1,4.2-2,6.4-2.4c1.1-0.3,2.3-0.4,3.4-0.4
				c0.6,0,1.1-0.1,1.7,0c0.6,0,1.1,0.1,1.5,0.1l0.5-4.9c-0.8-0.1-1.5,0-2.2,0.1c-0.7,0.1-1.3,0.1-2,0.3c-1.3,0.2-2.7,0.5-4,0.9
				c-2.6,0.8-5,2-7.3,3.6c-1.1,0.8-2.1,1.7-3,2.7c-0.9,0.9-1.8,2-2.5,3.2c-1.5,2.3-2.3,4.9-2.7,7.5c-0.6,5.2,1.1,11,5.7,13.8
				c1.1,0.7,2.3,1.1,3.6,1.4c1.3,0.2,2.6,0.2,3.9-0.2c0.6-0.2,1.2-0.5,1.7-0.9c0.5-0.4,0.9-1,1.1-1.6c0.4-1.1,0.4-2.3,0.1-3.5
				c1.1,0.3,2.1,0.8,2.7,1.7c0.8,0.9,0.8,2.2,0.5,3.4c-0.3,1.2-0.9,2.2-1.8,3.1c-0.8,0.9-1.8,1.6-2.8,2.1c-2.2,1-4.7,1.1-7,0.6
				c-2.3-0.6-4.4-1.8-6.2-3.3c-1.8-1.6-3.2-3.5-4-5.6c-0.9-2.1-1.3-4.5-1.3-6.8c-0.1-2.2,0.4-4.6,1.1-6.7c0.4-1.1,0.8-2.1,1.3-3.2
				c0.3-0.5,0.6-1,0.8-1.5c0.3-0.5,0.6-0.9,0.9-1.3l-4-2.9c-0.4,0.7-0.8,1.3-1.1,2c-0.3,0.6-0.6,1.3-0.8,1.9
				c-0.5,1.3-0.9,2.6-1.2,3.9c-0.6,2.7-0.8,5.3-0.5,8.1c0.2,1.3,0.4,2.7,0.8,3.9c0.4,1.3,0.9,2.5,1.5,3.7c1.3,2.4,3,4.4,5.2,6
				c4.2,3.1,10.1,4.6,14.8,2c1.1-0.6,2.1-1.5,3-2.5c0.8-1,1.5-2.1,1.8-3.4c0.1-0.6,0.2-1.3,0.1-2c-0.1-0.6-0.4-1.3-0.8-1.8
				c-0.8-0.9-1.8-1.5-3-1.8c0.8-0.8,1.8-1.4,2.8-1.5c1.2-0.2,2.3,0.4,3.2,1.2c0.9,0.8,1.5,1.9,1.8,3s0.6,2.3,0.4,3.5
				c-0.3,2.4-1.3,4.6-3,6.3c-1.6,1.7-3.7,3-5.9,3.7c-2.2,0.8-4.6,0.9-6.9,0.7c-2.2-0.3-4.5-1.2-6.6-2.2c-2-1.1-3.8-2.6-5.3-4.3
				c-0.8-0.9-1.5-1.8-2.1-2.7c-0.3-0.5-0.6-0.9-0.9-1.5s-0.5-1-0.6-1.4l-4.5,2c0.4,0.8,0.8,1.3,1.1,1.9c0.4,0.6,0.8,1.1,1.2,1.6
				c0.8,1.1,1.8,2,2.8,3c2,1.8,4.2,3.4,6.8,4.5c1.3,0.5,2.5,0.9,3.8,1.3c1.3,0.3,2.7,0.5,4,0.6c2.7,0.1,5.4-0.4,7.8-1.5
				c4.8-2,9-6.4,9.2-11.8c0.1-1.3-0.2-2.6-0.6-3.9c-0.4-1.2-1.1-2.4-2.1-3.2c-0.5-0.4-1-0.8-1.6-1c-0.6-0.3-1.3-0.3-2-0.2
				c-1.2,0.2-2.2,0.8-3,1.6c-0.3-1.1-0.3-2.2,0.1-3.2c0.4-1.1,1.5-1.8,2.7-2.1c1.1-0.3,2.3-0.3,3.5-0.1c1.1,0.3,2.3,0.7,3.3,1.4
				c2,1.4,3.4,3.5,4,5.8c0.7,2.2,0.7,4.7,0.2,7c-0.5,2.3-1.5,4.5-2.8,6.3c-1.4,1.8-3.3,3.3-5.2,4.6c-1.9,1.1-4.2,2-6.4,2.4
				c-1.1,0.3-2.3,0.4-3.4,0.4c-0.6,0-1.1,0.1-1.7,0c-0.6,0-1.1-0.1-1.5-0.1l-0.5,4.9c0.8,0.1,1.5,0,2.2-0.1c0.7-0.1,1.3-0.1,2-0.3
				c1.3-0.2,2.7-0.5,4-0.9c2.6-0.8,5-2,7.3-3.6c1.1-0.8,2.1-1.7,3-2.7c0.9-0.9,1.8-2,2.5-3.2c1.4-2.3,2.3-4.9,2.7-7.5
				c0.6-5.2-1.1-11-5.7-13.8c-1.1-0.7-2.3-1.1-3.6-1.4c-1.3-0.2-2.6-0.2-3.9,0.2c-0.6,0.2-1.2,0.5-1.7,0.9s-0.9,1-1.1,1.6
				c-0.4,1.1-0.4,2.3-0.1,3.5c-1.1-0.3-2.1-0.8-2.7-1.7c-0.8-0.9-0.8-2.2-0.5-3.4c0.3-1.2,0.9-2.2,1.8-3.1s1.8-1.6,2.8-2.1
				c2.2-1,4.7-1.1,7-0.6c2.3,0.6,4.4,1.8,6.2,3.3c1.8,1.6,3.2,3.5,4,5.6c0.9,2.1,1.3,4.5,1.3,6.8c0.1,2.2-0.4,4.6-1.1,6.7
				c-0.4,1.1-0.8,2.1-1.3,3.2c-0.3,0.5-0.6,1-0.8,1.5c-0.3,0.5-0.6,0.9-0.9,1.3l4,2.9c0.4-0.7,0.8-1.3,1.1-2
				c0.3-0.6,0.6-1.3,0.8-1.9c0.5-1.3,0.9-2.6,1.2-3.9c0.6-2.7,0.8-5.3,0.5-8.1C757,50.5,756.6,49.2,756.3,47.9z M734.2,47.5
				L734.2,47.5L734.2,47.5L734.2,47.5L734.2,47.5L734.2,47.5L734.2,47.5z"/>
		</g>
	</g>
	<g>
		<path class="st10" d="M734.2,85.4c-20.9,0-37.9-17-37.9-37.9s17-37.9,37.9-37.9s37.9,17,37.9,37.9S755.1,85.4,734.2,85.4z
			 M734.2,15.1c-17.8,0-32.4,14.5-32.4,32.4s14.5,32.4,32.4,32.4s32.4-14.5,32.4-32.4S752,15.1,734.2,15.1z"/>
	</g>
</g>
</svg>
