<?xml version="1.0" encoding="utf-8"?>
<!-- Generator: Adobe Illustrator 18.1.1, SVG Export Plug-In . SVG Version: 6.00 Build 0)  -->
<svg version="1.1" xmlns="http://www.w3.org/2000/svg" xmlns:xlink="http://www.w3.org/1999/xlink" x="0px" y="0px" width="596px"
	 height="157px" viewBox="0 0 596 157" enable-background="new 0 0 596 157" xml:space="preserve">
<g id="_x3C_Layer_x3E_">
</g>
<g id="Back_Back_Lock">
</g>
<g id="Layer_1">
</g>
<g id="Menu">
	<g>
		<rect opacity="0" fill="#676767" width="146" height="51"/>
		<rect x="150" opacity="0" fill="#676767" width="146" height="51"/>
		<rect x="300" opacity="0" fill="#676767" width="146" height="51"/>
		<rect x="450" opacity="0" fill="#676767" width="146" height="51"/>
		<g id="_x38_ZUheL_12_">
			<g>
				<path fill="#676767" d="M468.6,7c0.2,0,0.3,0,0.5,0c0.1,0,0.2-0.1,0.3-0.1c2.6,0.8,4.9,2.2,6.7,4.3c0.1,0.1,0.3,0.1,0.5,0.1
					c1-0.1,1.9-0.3,2.9-0.5c0.9-0.1,1.8-0.3,2.7-0.4c0.6-0.1,0.9,0.1,1.2,0.7c0.1,0.2,0.1,0.3,0.2,0.5c1.3,3.2,2.5,6.5,3.8,9.7
					c0.2,0.5,0.2,0.9-0.1,1.4c-1.1,1.9-2.2,3.9-3.3,5.8c-3,5.2-6,10.5-9,15.7c-0.2,0.3-0.4,0.8-0.7,0.8c-0.1,0-0.3,0-0.4,0
					c-0.2,0-0.4-0.2-0.6-0.3c-3.5-2-6.9-4-10.4-6c-1.5-0.9-3.1-1.8-4.6-2.7c-0.6-0.4-0.8-0.8-0.4-1.4c1.1-1.9,2.2-3.8,3.3-5.8
					c1.8-3.2,3.7-6.4,5.5-9.6c1.3-2.2,2.5-4.4,3.8-6.5c0.2-0.3,0.4-0.5,0.8-0.6c0.3,0,0.6-0.1,0.9-0.2c0.3,0,0.5,0,0.7,0.2
					c1.3,1.2,2.4,2.5,3.2,4.1c0.1,0.1,0.1,0.3,0,0.5c-0.4,1.5,0.1,2.8,1.4,3.6c1.5,0.9,3.6,0.2,4.3-1.4c0.6-1.4,0-3.1-1.2-4
					c-0.6-0.4-1.2-0.5-1.9-0.4c0.1,0.3,0.2,0.5,0.3,0.7c0.3,0.6,0.5,1.3,0.7,1.9c0.2,0.5-0.3,1-0.8,1c-0.4,0-0.7-0.2-0.9-0.7
					c-0.5-1.3-1.1-2.5-1.9-3.7c-1.3-2-3.1-3.6-5.3-4.7c-0.6-0.3-1.3-0.5-2-0.8c-0.3-0.1-0.6,0-0.7-0.3C467.8,7.5,468,7,468.6,7z
					 M472.1,36.7C472.1,36.6,472.1,36.6,472.1,36.7c1.2,0,2.1-0.4,2.8-1.3c1.1-1.4,1.3-2.9,0.2-4.4c-0.5-0.7-1.2-1.3-1.9-2
					c-0.5-0.5-1.1-1-1.6-1.6c-0.3-0.4-0.3-0.8-0.1-1.2c0.2-0.4,0.6-0.5,1.1-0.4c0.7,0.2,1.2,0.5,1.8,0.9c0.6,0.4,0.8,0.9,0.6,1.6
					c-0.1,0.3,0,0.5,0.3,0.6c0.6,0.3,1.1,0.6,1.7,0.9c0.3,0.2,0.7,0,0.7-0.3c0.1-0.5,0.2-1,0.2-1.4c-0.1-1.2-0.7-2.2-1.7-2.9
					c-0.5-0.3-0.5-0.4-0.3-0.9c0.1-0.3,0-0.5-0.3-0.7c-0.4-0.2-0.7-0.6-1.2-0.3c0,0-0.1,0.1-0.1,0.1c-0.4,0.5-0.5,0.5-1,0.3
					c-0.8-0.3-1.6-0.4-2.4-0.3c-1.7,0.3-3,1.8-2.9,3.5c0.1,1,0.6,1.8,1.2,2.4c0.7,0.7,1.5,1.4,2.2,2.1c0.3,0.3,0.6,0.6,0.8,0.9
					c0.3,0.4,0.2,0.8-0.1,1.2c-0.3,0.4-0.7,0.5-1.1,0.4c-0.5-0.2-1.1-0.4-1.6-0.7c-1.1-0.6-1.3-1.2-0.9-2.1c0.1-0.3,0-0.5-0.3-0.7
					c-0.6-0.3-1.1-0.6-1.7-0.9c-0.4-0.2-0.7-0.1-0.9,0.4c-0.5,1.2-0.3,2.4,0.4,3.5c0.3,0.5,0.8,0.9,1.3,1.3c0.4,0.3,0.4,0.5,0.2,0.9
					c-0.3,0.7-0.3,0.8,0.4,1.2c0,0,0.1,0,0.1,0.1c0.5,0.2,0.7,0.2,0.9-0.3c0.3-0.5,0.4-0.6,1-0.4C470.9,36.4,471.5,36.5,472.1,36.7z
					"/>
			</g>
		</g>
		<g id="rIVfB7_7_">
			<g>
				<path fill="#676767" d="M25,37c-2,0-3,0-4.4,0c-0.6,0-0.9-0.4-1.1-1c-0.3-0.9-0.4-2-0.7-2.9c-0.3-1-0.7-2.1-1.1-3.1
					c-0.8-1.8-1.8-3.6-2.5-5.5c-0.8-1.9-1-3.9-0.5-5.9c0.8-3.2,2.8-5.4,6-6.3c2.9-0.8,5.7-0.7,8.5,0.3c3.7,1.4,5.6,4.6,5.3,8.5
					c-0.1,1.9-0.7,3.7-1.6,5.5c-0.8,1.8-1.7,3.6-2.5,5.4c-0.4,1-0.5,2-0.8,3.1c-0.1,0.2-0.1,0.4-0.2,0.7c-0.2,0.6-0.3,0.9-1,0.9
					c-1.3,0-2.7,0-3.7,0C25,36.6,25,37,25,37z"/>
				<path fill="#676767" d="M25,40.9c-2,0-3.1,0-4.5,0c-0.6,0-0.8-0.1-0.9-0.7c0-0.4-0.1-0.9-0.1-1.3c0-0.7,0.1-0.8,0.8-0.8
					c2.2,0,4.3,0,6.5,0c0.7,0,1.5,0,2.2,0c0.5,0,0.7,0.2,0.7,0.7c0,0.5,0,1,0,1.5c0,0.5,0,0.7-0.5,0.7C27.7,40.9,26,40.9,25,40.9
					C25,40.9,25,40.9,25,40.9z"/>
				<path fill="#676767" d="M25,45.2c-2,0-3.1,0-4.5,0c-0.6,0-0.9-0.1-0.9-0.8c0-0.5-0.1-0.9-0.1-1.4c0-0.5,0.2-0.7,0.7-0.7
					c2.9,0,5.9,0,8.8,0c0.5,0,0.7,0.2,0.7,0.7c0,0.5,0,0.9,0,1.4c0,0.6,0,0.8-0.6,0.8C27.7,45.2,26,45.2,25,45.2
					C25,45.2,25,45.2,25,45.2z"/>
				<path fill="#676767" d="M31.6,10.5c0.1-0.3,0.2-0.7,0.4-1c0.7-1.1,1.3-2.1,2-3.2c0.4-0.6,1.1-0.8,1.7-0.5
					c0.5,0.2,0.7,0.9,0.5,1.6c-0.1,0.2-0.1,0.3-0.2,0.5c-0.7,1.1-1.4,2.2-2.2,3.2c-0.3,0.5-1,0.7-1.4,0.6
					C32,11.6,31.6,11.1,31.6,10.5z"/>
				<path fill="#676767" d="M14.2,5.7c0.5,0,0.8,0.2,1,0.6c0.7,1.1,1.4,2.2,2.1,3.2c0.5,0.7,0.4,1.5-0.1,1.9
					c-0.5,0.4-1.3,0.4-1.7-0.2c-0.8-1.2-1.6-2.4-2.4-3.6C12.6,6.8,13.2,5.7,14.2,5.7z"/>
				<path fill="#676767" d="M38.1,24c1.1,0.2,2.3,0.4,3.5,0.6c0.2,0,0.5,0.1,0.7,0.1c0.9,0.3,1.1,1.1,0.5,1.8
					c-0.4,0.4-0.9,0.7-1.5,0.6c-1.2-0.2-2.4-0.4-3.6-0.6c-0.1,0-0.2,0-0.2-0.1c-0.7-0.2-1.2-0.8-1-1.4C36.6,24.4,37.1,24,38.1,24z"
					/>
				<path fill="#676767" d="M7.4,27.2c-0.3-0.2-0.7-0.3-1-0.7c-0.7-0.7-0.3-1.7,0.6-1.8c1.4-0.3,2.7-0.5,4.1-0.7
					c0.4,0,0.9,0.1,1.2,0.3c0.7,0.5,0.6,1.5-0.2,1.9c-0.3,0.1-0.6,0.2-0.9,0.3C10,26.7,8.8,26.9,7.4,27.2z"/>
				<path fill="#676767" d="M11.2,17.9c-0.3-0.1-0.5-0.1-0.8-0.2c-1.1-0.4-2.2-0.9-3.3-1.4c-0.3-0.1-0.5-0.3-0.7-0.5
					c-0.3-0.4-0.5-0.8-0.2-1.3c0.3-0.5,0.7-0.7,1.2-0.7c0.2,0,0.5,0.1,0.7,0.2c1.1,0.5,2.3,1,3.4,1.6c0.8,0.4,1,1,0.8,1.7
					C12.1,17.7,11.8,17.8,11.2,17.9z"/>
				<path fill="#676767" d="M38,17.9c-0.4,0-0.8-0.1-1-0.5c-0.2-0.5-0.3-0.9,0.1-1.4c0.2-0.2,0.4-0.4,0.7-0.5
					c1.1-0.5,2.2-1.1,3.3-1.6c0.5-0.2,1.1-0.3,1.6,0.1c0.6,0.5,0.6,1.2,0,1.8c-0.2,0.2-0.4,0.4-0.7,0.5c-1.1,0.5-2.1,0.9-3.2,1.4
					C38.6,17.8,38.3,17.8,38,17.9z"/>
				<path fill="#676767" d="M23.4,7c0-1,0-1.5,0-2.2c0-0.8,0.5-1.5,1.2-1.5c0.7,0,1.2,0.4,1.3,1.2c0,1.4,0,2.7,0,4
					c0,0.5-0.2,1-0.7,1.2c-0.8,0.4-1.6,0-1.7-1C23.4,8.2,23.4,7,23.4,7C23.4,7,23.4,7,23.4,7z"/>
			</g>
		</g>
		<g>
			<path fill="#676767" d="M179.8,30.1c0.8,0,1.4,0.1,1.9,0.2c0.3,0.1,0.5,0.2,0.5,0.4c0,0.2-0.5,0.5-1.3,0.8
				c-0.3,0.1-0.6,0.2-0.9,0.3L179.8,30.1z"/>
			<path fill="#676767" d="M178.2,30.1l0.3,2c-0.4,0.1-0.9,0.1-1.3,0.2c-0.8,0.1-1.5,0.1-2.2,0.1l-0.3-2c0.5,0,1,0,1.5-0.1
				C176.9,30.2,177.6,30.1,178.2,30.1z"/>
			<path fill="#676767" d="M176.7,27.3c-0.9,0.1-1.7,0.1-2.4,0.2l-0.3-2c0.2,0,0.5-0.1,0.8-0.1c0.6-0.1,1.1-0.1,1.7-0.1
				c0.4,0,0.7,0,1.1,0l0.3,1.9c-0.1,0-0.1,0-0.2,0L176.7,27.3z"/>
			<path fill="#676767" d="M173.3,32.8C173.3,32.8,173.3,32.8,173.3,32.8c-0.1,0-0.2,0-0.4,0C173.1,32.8,173.2,32.8,173.3,32.8z"/>
			<path fill="#676767" d="M172.3,27.5c-0.9,0-1.4-0.2-1.5-0.6c0-0.1,0.1-0.3,0.3-0.5c0.3-0.3,0.8-0.5,1.3-0.7l0.2,1.8
				C172.6,27.5,172.4,27.5,172.3,27.5z"/>
			<path fill="#676767" d="M170.8,17.1c0.2-0.4,0.4-0.8,0.5-1.2c0.1-0.3,0.2-0.5,0.2-0.8c0-0.3-0.2-0.5-0.3-0.7c-1.3-2-2.6-4-3.9-6
				c1.4-0.7,3-0.9,4.5-0.6c0-0.5,0.1-1,0.1-1.5c2.4-0.6,4.9-0.6,7.3-0.1c-0.1,0.2-0.2,0.5-0.2,0.8c0.9-0.3,2-0.2,2.9,0.2
				c-0.2,0-0.4,0.8-0.3,0.9c0.1,0.2,0.2,0.3,0.4,0.3c-0.4,0.3-0.4,1-0.5,1.5c-0.2,0.7-0.6,1.4-0.9,2c-0.6,1-1.3,2-1.7,3.1
				c-0.3,0.8-0.9,1.5,0.1,2.2v0l-0.4,0.1c0,0-0.1-0.1-0.1-0.1c-0.2-0.4-0.3-0.6-0.6-0.5c-0.3,0.2-1,0.5-1.5,0.6
				c-0.6,0.1-4.2,0.2-4.2,0.2s-0.3,0-0.4,0.2L170.8,17.1z"/>
			<path fill="#676767" d="M169.3,33.3c-1.3,0.6-1.8,1.9-0.4,2c1.3,0.1,2.9-0.6,4.4-0.7c0,0.4,0.1,1.2,0.1,1.7c0,0.1,0,0.1,0,0.1
				c0,0.3,0.1,0.6,0.1,0.9c0.1,0.4,0.9,2.4,1.7,1.5c0,0,0,0,0,0c0,0,0,0,0,0c0-0.3,0-0.5,0-0.8c0,0,0,0,0,0c-0.1-0.1,0-0.5,0-0.6
				c0-0.1,0-0.2,0-0.3c0-0.3-0.1-2.9-0.1-2.9c1.2-0.2,2.3-0.3,3.5-0.5c0.3,0.5,0.3,1,0.2,1.6c0,0.5-0.1,1.1,0.2,1.6
				c0.3,0.5,1,0.7,1.4,0.3c0.3-0.3,0.2-0.7,0.2-1.1c-0.1-0.9-0.3-1.9-0.4-2.8c1.2-0.3,2.4-0.5,3.4-1.2c1-0.7,1.7-2,1.3-3.1
				c-0.3-1-1.3-1.7-2.3-1.9c-1-0.2-2.1-0.1-3.2,0.1c-0.1-0.6-0.1-1.2-0.2-1.7c1.5,0.5,3.4,1,4.5-0.2c0.3-0.3,0.5-0.7,0.3-1
				c-0.2-0.3-0.6-0.4-0.9-0.4c-1.4-0.1-2.8-0.3-4.2-0.4c-0.1-0.9-0.2-1.8-0.3-2.7c0-0.3-0.1-0.7-0.4-0.9c-0.4-0.3-1.1,0-1.2,0.5
				c-0.2,0.5,0,1,0.1,1.5c0.2,0.5,0.3,1,0.2,1.5c-1.2,0-2.4,0-3.5,0.2c-0.2-0.4-0.2-1-0.2-1.5c0-0.5,0-1.1-0.3-1.5
				c-0.3-0.4-1-0.6-1.3-0.2c-0.2,0.3-0.2,0.6-0.1,0.9c0.1,0.9,0.2,1.8,0.4,2.6c-1.5,0.2-2.9,1.1-3.7,2.4c-0.2,0.3-0.4,0.7-0.5,1.1
				c0,0.4,0.1,0.7,0.1,1.1c0.2,0.3,0.5,0.6,0.8,0.8c1.2,0.8,2.7,0.9,4.1,1c0,0,0.2,1.4,0.2,1.5c0.1,0.3,0.1,0.7,0.1,1
				c-0.1,0-0.2,0-0.4,0C171.7,32.8,170.4,32.8,169.3,33.3z M167.5,42.4c-0.6-0.1-1.2-0.1-1.7-0.2c-0.7-0.1-1.4-0.3-2.1-0.5
				c-0.3-0.1-0.7-0.2-1-0.3c-0.3-0.1-0.7-0.4-1-0.4c-1.4-0.6-2.7-1.4-3.2-2.9c-0.2-0.7-0.3-1.4-0.4-2.1c-0.3-2.8-0.6-6.2,0.8-8.8
				c0.7-1.4,1.9-2.4,3.1-3.2c2.3-1.6,4.7-3,7.1-4.4c0.3-0.2,0.8-0.5,1-0.7c0.2-0.3,0.3-0.6,0.5-0.9c0.1-0.3,0.3-0.6,0.4-1l0.9,0.4
				c0,0,0,0.1,0,0.1c0.1,0.3,0.3,0.5,0.4,0.6c0.1,0,0.6,0,1.3,0c0.7,0,1.6,0,2.4,0c1.6,0,1.8-0.2,2.1-0.5c0.3-0.2,0.6-0.3,0.5-0.6
				l0.3-0.1c0.3,0.6,0.7,1,1.2,1.4c0.8,0.6,1.8,0.8,2.7,1.2c4.9,1.7,9,5.2,10.5,10.3c0.9,3.1,0.8,6.4-0.1,9.4
				c-0.2,0.6-0.4,1.5-0.8,2c-0.5,0.5-1.3,0.6-2,0.7c-0.9,0.2-1.8,0.2-2.7,0.3c-1.7,0.2-3.3,0.4-5,0.4c-3.4,0.2-6.7,0.1-10.1,0
				c-0.7,0-1.5-0.1-2.2-0.1C169.3,42.5,168.4,42.5,167.5,42.4z"/>
		</g>
		<path fill="#676767" d="M315,25v-4h-2c0.1-2,1-1.9,2-2v-1.6c-1,0-2.6,0.1-3.7,0.9c-1,0.8-1.3,1.9-1.3,2.9V25H315z M321,17.4
			c-4,0.1-4,2.7-5,4V25h5v-4h-1.8c0-1-0.2-1.8,1.8-2V17.4z M325.8,37.3c-2.3,2.7-4.5,5.2-6.8,7.9c-0.1,0-0.1-0.1-0.2-0.1h0
			c-0.1,0-0.2,0.1-0.3,0.1c-0.3-0.2-0.4-0.3-0.4-0.6c0-2.3,0-4.7,0-7c0-0.1,0-0.3,0-0.4c-1,0-2.6,0-4,0c-0.6,0-1.1,0-1.7-0.1
			c-2.7-0.5-4.3-2.1-5.1-4.7c-0.1-0.4-0.3-0.8-0.3-1.2V18.5c0-0.1,0.1-0.1,0.1-0.2c0.3-2.3,1.4-4.3,3.5-5.4c0.6-0.3,1.4,0.1,2-0.9
			h-0.2c0,0,0.1,0.2,0.1,0.2c10.2,0,12.2,0.1,22.3,0.1c0,0,0.1,0.1,0.1,0.1c0,0,0.1,0.1,0.1,0.1c0,0,0.1,0.1,0.1,0.1
			c0.1,0,0.1,0,0.2,0c2.4,0.5,4.1,1.8,5,4.1c0.2,0.6,0.6,1.3,0.6,1.9V31c0,0.2-0.2,0.4-0.3,0.7c-0.5,3.1-3.2,5.4-6.4,5.4
			c-5.4,0-2.6,0-8.1,0C326.1,37,325.9,37.1,325.8,37.3z M326,32.6c4-0.1,4-2.7,4-4V25h-4v4h1.6c0,1,0.4,1.7-1.6,2V32.6z M332,31v1.6
			c1,0,2.7-0.1,3.7-0.8c1-0.8,0.3-1.9,1.3-2.9V25h-5v4h1.9C333.8,30,333,30.8,332,31z"/>
		<rect y="53" opacity="0" fill="#676767" width="146" height="51"/>
		<rect x="150" y="53" opacity="0" fill="#676767" width="146" height="51"/>
		<rect x="300" y="53" opacity="0" fill="#676767" width="146" height="51"/>
		<rect x="450" y="53" opacity="0" fill="#676767" width="146" height="51"/>
		<path fill="#97BF4E" d="M43,104H0V53h43c2.8,0,5,2.2,5,5v41C48,101.8,45.8,104,43,104z"/>
		<path fill="#97BF4E" d="M193,104h-43V53h43c2.8,0,5,2.2,5,5v41C198,101.8,195.8,104,193,104z"/>
		<path fill="#97BF4E" d="M343,104h-43V53h43c2.8,0,5,2.2,5,5v41C348,101.8,345.8,104,343,104z"/>
		<path fill="#97BF4E" d="M493,104h-43V53h43c2.8,0,5,2.2,5,5v41C498,101.8,495.8,104,493,104z"/>
		<g>
			<path fill="#F8F8F4" d="M62.2,101c-3.1,0-5.2-2.1-5.2-5V82.9l-6-5.3l6-4.8V62c0-2.9,2.1-6,5.2-6h57.5c3.2,0,5.3,3.1,5.3,6v34
				c0,3-2.2,5-5.3,5H62.2z"/>
			<path fill="#C6C5C5" d="M119.7,57c2.9,0,4.3,2.3,4.3,5v34c0,2.7-1.5,5-4.3,5H62.2c-2.8,0-5.2-2.3-5.2-5V83.1v-0.4l-0.1-0.3
				l-5.2-4.8l5.1-4.3L57,73v-0.5V62c0-2.6,2.4-5,5.2-5H120 M119.7,56H62.2c-3.3,0-6.2,2.7-6.2,6v10.6l-6.2,5l6.2,5.5V96
				c0,3.3,2.9,6,6.2,6h57.5c3.3,0,5.3-2.7,5.3-6V62C125,58.7,123,56,119.7,56L119.7,56z"/>
		</g>
		<g>
			<path fill="#F8F8F4" d="M362.2,101c-3.1,0-5.2-2.1-5.2-5V82.9l-6-5.3l6-4.8V62c0-2.9,2.1-6,5.2-6h57.5c3.2,0,5.3,3.1,5.3,6v34
				c0,3-2.2,5-5.3,5H362.2z"/>
			<path fill="#C6C5C5" d="M419.7,57c2.9,0,4.3,2.3,4.3,5v34c0,2.7-1.5,5-4.3,5h-57.5c-2.8,0-5.2-2.3-5.2-5V83.1v-0.4l-0.1-0.3
				l-5.2-4.8l5.1-4.3L357,73v-0.5V62c0-2.6,2.4-5,5.2-5H420 M419.7,56h-57.5c-3.3,0-6.2,2.7-6.2,6v10.6l-6.2,5l6.2,5.5V96
				c0,3.3,2.9,6,6.2,6h57.5c3.3,0,5.3-2.7,5.3-6V62C425,58.7,423,56,419.7,56L419.7,56z"/>
		</g>
		<g>
			<path fill="#F8F8F4" d="M512.2,101c-3.1,0-5.2-2.1-5.2-5V82.9l-6-5.3l6-4.8V62c0-2.9,2.1-6,5.2-6h57.5c3.2,0,5.3,3.1,5.3,6v34
				c0,3-2.2,5-5.3,5H512.2z"/>
			<path fill="#C6C5C5" d="M569.7,57c2.9,0,4.3,2.3,4.3,5v34c0,2.7-1.5,5-4.3,5h-57.5c-2.8,0-5.2-2.3-5.2-5V83.1v-0.4l-0.1-0.3
				l-5.2-4.8l5.1-4.3L507,73v-0.5V62c0-2.6,2.4-5,5.2-5H570 M569.7,56h-57.5c-3.3,0-6.2,2.7-6.2,6v10.6l-6.2,5l6.2,5.5V96
				c0,3.3,2.9,6,6.2,6h57.5c3.3,0,5.3-2.7,5.3-6V62C575,58.7,573,56,569.7,56L569.7,56z"/>
		</g>
		<g>
			<path fill="#F8F8F4" d="M212.2,101c-3.1,0-5.2-2.1-5.2-5V82.9l-6-5.3l6-4.8V62c0-2.9,2.1-6,5.2-6h71.5c3.2,0,5.3,3.1,5.3,6v34
				c0,3-2.2,5-5.3,5H212.2z"/>
			<path fill="#C6C5C5" d="M283.7,57c2.9,0,4.3,2.3,4.3,5v34c0,2.7-1.5,5-4.3,5h-71.5c-2.8,0-5.2-2.3-5.2-5V83.1v-0.4l-0.1-0.3
				l-5.2-4.8l5.1-4.3L207,73v-0.5V62c0-2.6,2.4-5,5.2-5H284 M283.7,56h-71.5c-3.3,0-6.2,2.7-6.2,6v10.6l-6.2,5l6.2,5.5V96
				c0,3.3,2.9,6,6.2,6h71.5c3.3,0,5.3-2.7,5.3-6V62C289,58.7,287,56,283.7,56L283.7,56z"/>
		</g>
		<g id="_x38_ZUheL_13_">
			<g>
				<path fill="#F8F8F4" d="M468.6,60c0.2,0,0.3,0,0.5,0c0.1,0,0.2-0.1,0.3-0.1c2.6,0.8,4.9,2.2,6.7,4.3c0.1,0.1,0.3,0.1,0.5,0.1
					c1-0.1,1.9-0.3,2.9-0.5c0.9-0.1,1.8-0.3,2.7-0.4c0.6-0.1,0.9,0.1,1.2,0.7c0.1,0.2,0.1,0.3,0.2,0.5c1.3,3.2,2.5,6.5,3.8,9.7
					c0.2,0.5,0.2,0.9-0.1,1.4c-1.1,1.9-2.2,3.9-3.3,5.8c-3,5.2-6,10.5-9,15.7c-0.2,0.3-0.4,0.8-0.7,0.8c-0.1,0-0.3,0-0.4,0
					c-0.2,0-0.4-0.2-0.6-0.3c-3.5-2-6.9-4-10.4-6c-1.5-0.9-3.1-1.8-4.6-2.7c-0.6-0.4-0.8-0.8-0.4-1.4c1.1-1.9,2.2-3.8,3.3-5.8
					c1.8-3.2,3.7-6.4,5.5-9.6c1.3-2.2,2.5-4.4,3.8-6.5c0.2-0.3,0.4-0.5,0.8-0.6c0.3,0,0.6-0.1,0.9-0.2c0.3,0,0.5,0,0.7,0.2
					c1.3,1.2,2.4,2.5,3.2,4.1c0.1,0.1,0.1,0.3,0,0.5c-0.4,1.5,0.1,2.8,1.4,3.6c1.5,0.9,3.6,0.2,4.3-1.4c0.6-1.4,0-3.1-1.2-4
					c-0.6-0.4-1.2-0.5-1.9-0.4c0.1,0.3,0.2,0.5,0.3,0.7c0.3,0.6,0.5,1.3,0.7,1.9c0.2,0.5-0.3,1-0.8,1c-0.4,0-0.7-0.2-0.9-0.7
					c-0.5-1.3-1.1-2.5-1.9-3.7c-1.3-2-3.1-3.6-5.3-4.7c-0.6-0.3-1.3-0.5-2-0.8c-0.3-0.1-0.6,0-0.7-0.3C467.8,60.5,468,60,468.6,60z
					 M472.1,89.7C472.1,89.6,472.1,89.6,472.1,89.7c1.2,0,2.1-0.4,2.8-1.3c1.1-1.4,1.3-2.9,0.2-4.4c-0.5-0.7-1.2-1.3-1.9-2
					c-0.5-0.5-1.1-1-1.6-1.6c-0.3-0.4-0.3-0.8-0.1-1.2c0.2-0.4,0.6-0.5,1.1-0.4c0.7,0.2,1.2,0.5,1.8,0.9c0.6,0.4,0.8,0.9,0.6,1.6
					c-0.1,0.3,0,0.5,0.3,0.6c0.6,0.3,1.1,0.6,1.7,0.9c0.3,0.2,0.7,0,0.7-0.3c0.1-0.5,0.2-1,0.2-1.4c-0.1-1.2-0.7-2.2-1.7-2.9
					c-0.5-0.3-0.5-0.4-0.3-0.9c0.1-0.3,0-0.5-0.3-0.7c-0.4-0.2-0.7-0.6-1.2-0.3c0,0-0.1,0.1-0.1,0.1c-0.4,0.5-0.5,0.5-1,0.3
					c-0.8-0.3-1.6-0.4-2.4-0.3c-1.7,0.3-3,1.8-2.9,3.5c0.1,1,0.6,1.8,1.2,2.4c0.7,0.7,1.5,1.4,2.2,2.1c0.3,0.3,0.6,0.6,0.8,0.9
					c0.3,0.4,0.2,0.8-0.1,1.2c-0.3,0.4-0.7,0.5-1.1,0.4c-0.5-0.2-1.1-0.4-1.6-0.7c-1.1-0.6-1.3-1.2-0.9-2.1c0.1-0.3,0-0.5-0.3-0.7
					c-0.6-0.3-1.1-0.6-1.7-0.9c-0.4-0.2-0.7-0.1-0.9,0.4c-0.5,1.2-0.3,2.4,0.4,3.5c0.3,0.5,0.8,0.9,1.3,1.3c0.4,0.3,0.4,0.5,0.2,0.9
					c-0.3,0.7-0.3,0.8,0.4,1.2c0,0,0.1,0,0.1,0.1c0.5,0.2,0.7,0.2,0.9-0.3c0.3-0.5,0.4-0.6,1-0.4C470.9,89.4,471.5,89.5,472.1,89.7z
					"/>
			</g>
		</g>
		<g>
			<path fill="#97BF4E" d="M74.3,73.2h-5.7v3.7h-0.8v-8.2h0.8v3.7h5.7v-3.7h0.8v8.2h-0.8V73.2z"/>
			<path fill="#97BF4E" d="M81.4,68.6c2.4,0,4.2,1.8,4.2,4.2c0,2.4-1.8,4.2-4.2,4.2c-2.4,0-4.2-1.8-4.2-4.2
				C77.3,70.4,79.1,68.6,81.4,68.6z M81.4,76.3c2,0,3.4-1.5,3.4-3.4c0-2-1.4-3.4-3.4-3.4c-1.9,0-3.4,1.5-3.4,3.4
				C78.1,74.8,79.5,76.3,81.4,76.3z"/>
			<path fill="#97BF4E" d="M92.8,72.5l-1.9,4.4H90l-3.3-8.2h0.9l2.9,7.2l2-4.4l-1.1-2.8h0.9l2.9,7.1l3.1-7.1H99l-3.5,8.2h-0.9
				L92.8,72.5z"/>
			<path fill="#97BF4E" d="M103.6,68.8h0.8v8.2h-0.8V68.8z"/>
			<path fill="#97BF4E" d="M110,69.5v7.4h-0.8v-7.4H106v-0.7h7v0.7H110z"/>
			<path fill="#97BF4E" d="M72.8,86.4l-1.9,4.4H70l-3.3-8.2h0.9l2.9,7.2l2-4.4l-1.1-2.8h0.9l2.9,7.1l3.1-7.1H79l-3.5,8.2h-0.9
				L72.8,86.4z"/>
			<path fill="#97BF4E" d="M84.2,82.5c2.4,0,4.2,1.8,4.2,4.2c0,2.4-1.8,4.2-4.2,4.2c-2.4,0-4.2-1.8-4.2-4.2
				C80,84.3,81.8,82.5,84.2,82.5z M84.2,90.1c2,0,3.4-1.5,3.4-3.4c0-2-1.4-3.4-3.4-3.4c-1.9,0-3.4,1.5-3.4,3.4
				C80.8,88.7,82.2,90.1,84.2,90.1z"/>
			<path fill="#97BF4E" d="M90.5,82.6H94c1.5,0,2.9,0.7,2.9,2.6c0,1.5-1.3,2.5-2.7,2.5h-0.1c0.8,0.8,1.9,2.5,3.1,2.5
				c0.3,0,0.7-0.1,1.1-0.3l0.1,0.7c-0.3,0.2-0.8,0.3-1.3,0.3c-1.8,0-3.1-2.6-4-3.2h-1.7v3.1h-0.8V82.6z M91.3,83.3V87h2.8
				c1.1,0,2-0.7,2-1.8c0-1.3-0.9-1.9-2-1.9H91.3z"/>
			<path fill="#97BF4E" d="M99.7,82.6h0.8v3.7h2.1l2.7-3.7h0.9v0.1l-2.9,4c0.7,0.7,1.5,3.4,3,3.4c0.3,0,0.7-0.1,1.1-0.3l0.1,0.7
				c-0.3,0.2-0.8,0.3-1.3,0.3c-2,0-2.8-3.1-3.5-3.8h-2.1v3.7h-0.8V82.6z"/>
			<path fill="#97BF4E" d="M110.1,86.7c-1.1-0.3-1.8-0.9-1.8-2c0-1.2,1-2.3,3.2-2.3c1.1,0,2.2,0.3,2.8,0.7l-0.3,0.8
				c-0.6-0.3-1.6-0.7-2.6-0.7c-1.6,0-2.3,0.7-2.3,1.5c0,0.7,0.5,1.1,1.3,1.3l1.7,0.4c1.4,0.3,2.2,0.9,2.2,2.1c0,1.5-1.3,2.4-3.2,2.4
				c-1.2,0-2.2-0.4-2.8-0.7l0.2-0.8c0.5,0.3,1.5,0.7,2.6,0.7c1.4,0,2.4-0.6,2.4-1.6c0-0.7-0.6-1.1-1.7-1.4L110.1,86.7z"/>
		</g>
		<g>
			<path fill="#97BF4E" d="M214.1,75.4v-8.2h6.2V68h-5.4v2.8h4.5v0.7h-4.5v3.2h5.4v0.7H214.1z"/>
			<path fill="#97BF4E" d="M224.9,67.2h0.9l3.3,8.2h-0.8l-0.8-2H223l-0.9,2h-0.8L224.9,67.2z M223.3,72.8h4l-1.9-4.7L223.3,72.8z"/>
			<path fill="#97BF4E" d="M230.8,67.2h3.5c1.5,0,2.9,0.7,2.9,2.6c0,1.5-1.3,2.5-2.7,2.5h-0.1c0.8,0.8,1.9,2.5,3.1,2.5
				c0.3,0,0.7-0.1,1.1-0.3l0.1,0.7c-0.3,0.2-0.8,0.3-1.3,0.3c-1.8,0-3.1-2.6-4-3.2h-1.7v3.1h-0.8V67.2z M231.6,68v3.7h2.8
				c1.1,0,2-0.7,2-1.8c0-1.3-0.9-1.9-2-1.9H231.6z"/>
			<path fill="#97BF4E" d="M240.8,68.6v6.8H240v-8.2h0.7l5.8,6.9v-6.9h0.8v8.2h-0.7L240.8,68.6z"/>
			<path fill="#97BF4E" d="M250,67.2h0.8v8.2H250V67.2z"/>
			<path fill="#97BF4E" d="M254.3,68.6v6.8h-0.8v-8.2h0.7l5.8,6.9v-6.9h0.8v8.2h-0.7L254.3,68.6z"/>
			<path fill="#97BF4E" d="M270.7,71.1v3.4c-0.8,0.6-2.1,1.1-3.4,1.1c-2.4,0-4.3-1.6-4.3-4.2c0-2.7,1.9-4.2,4.3-4.2
				c1.3,0,2.3,0.4,3.1,1.2l-0.4,0.6c-0.7-0.6-1.5-1-2.7-1c-2,0-3.5,1.3-3.5,3.4c0,2.1,1.6,3.4,3.6,3.4c1,0,1.9-0.3,2.5-0.7v-2.2H267
				v-0.7H270.7z"/>
			<path fill="#97BF4E" d="M214.1,81.1h3.5c1.5,0,2.8,0.9,2.8,2.9c0,1.8-1.3,2.8-2.8,2.8h-2.7v2.5h-0.8V81.1z M214.9,81.8V86h2.6
				c1.2,0,2.1-0.8,2.1-2.1c0-1.4-1-2.1-2.1-2.1H214.9z"/>
			<path fill="#97BF4E" d="M226,81c2.4,0,4.2,1.8,4.2,4.2c0,2.4-1.8,4.2-4.2,4.2c-2.4,0-4.2-1.8-4.2-4.2C221.8,82.8,223.6,81,226,81
				z M226,88.6c2,0,3.4-1.5,3.4-3.4c0-2-1.4-3.4-3.4-3.4c-1.9,0-3.4,1.5-3.4,3.4C222.6,87.1,224,88.6,226,88.6z"/>
			<path fill="#97BF4E" d="M234.9,81.8v7.4H234v-7.4h-3.2v-0.7h7v0.7H234.9z"/>
			<path fill="#97BF4E" d="M239.5,89.2v-8.2h6.2v0.7h-5.4v2.8h4.5v0.7h-4.5v3.2h5.4v0.7H239.5z"/>
			<path fill="#97BF4E" d="M248.7,82.4v6.8h-0.8v-8.2h0.7l5.8,6.9v-6.9h0.8v8.2h-0.7L248.7,82.4z"/>
			<path fill="#97BF4E" d="M260.8,81.8v7.4H260v-7.4h-3.2v-0.7h7v0.7H260.8z"/>
			<path fill="#97BF4E" d="M265.4,81.1h0.8v8.2h-0.8V81.1z"/>
			<path fill="#97BF4E" d="M271.3,81.1h0.9l3.3,8.2h-0.8l-0.8-2h-4.4l-0.9,2h-0.8L271.3,81.1z M269.7,86.6h4l-1.9-4.7L269.7,86.6z"
				/>
			<path fill="#97BF4E" d="M277.3,89.2v-8.2h0.8v7.4h4.7v0.7H277.3z"/>
		</g>
		<g>
			<path fill="#97BF4E" d="M364.1,74.3h3.5c1.5,0,2.9,0.7,2.9,2.6c0,1.5-1.3,2.5-2.7,2.5h-0.1c0.8,0.8,1.9,2.5,3.1,2.5
				c0.3,0,0.7-0.1,1.1-0.3l0.1,0.7c-0.3,0.2-0.8,0.3-1.3,0.3c-1.8,0-3.1-2.6-4-3.2h-1.7v3.1h-0.8V74.3z M364.9,75v3.7h2.8
				c1.1,0,2-0.7,2-1.8c0-1.3-0.9-1.9-2-1.9H364.9z"/>
			<path fill="#97BF4E" d="M373.2,82.4v-8.2h6.2V75H374v2.8h4.5v0.7H374v3.2h5.4v0.7H373.2z"/>
			<path fill="#97BF4E" d="M380.6,74.3h0.9l2.9,7.4l3.1-7.4h0.9l-3.5,8.2h-1L380.6,74.3z"/>
			<path fill="#97BF4E" d="M390,74.3h0.8v8.2H390V74.3z"/>
			<path fill="#97BF4E" d="M393.5,82.4v-8.2h6.2V75h-5.4v2.8h4.5v0.7h-4.5v3.2h5.4v0.7H393.5z"/>
			<path fill="#97BF4E" d="M407,78l-1.9,4.4h-0.9l-3.3-8.2h0.9l2.9,7.2l2-4.4l-1.1-2.8h0.9l2.9,7.1l3.1-7.1h0.9l-3.5,8.2h-0.9
				L407,78z"/>
			<path fill="#97BF4E" d="M416.1,78.4c-1.1-0.3-1.8-0.9-1.8-2c0-1.2,1-2.3,3.2-2.3c1.1,0,2.2,0.3,2.8,0.7l-0.3,0.8
				c-0.6-0.3-1.6-0.7-2.6-0.7c-1.6,0-2.3,0.7-2.3,1.5c0,0.7,0.5,1.1,1.3,1.3l1.7,0.4c1.4,0.3,2.2,0.9,2.2,2.1c0,1.5-1.3,2.4-3.2,2.4
				c-1.2,0-2.2-0.4-2.8-0.7l0.2-0.8c0.5,0.3,1.5,0.7,2.6,0.7c1.4,0,2.4-0.6,2.4-1.6c0-0.7-0.6-1.1-1.7-1.4L416.1,78.4z"/>
		</g>
		<g>
			<path fill="#97BF4E" d="M514.1,73.9h3.5c1.5,0,2.8,0.9,2.8,2.9c0,1.8-1.3,2.8-2.8,2.8h-2.7v2.5h-0.8V73.9z M514.9,74.6v4.2h2.6
				c1.2,0,2.1-0.8,2.1-2.1c0-1.4-1-2.1-2.1-2.1H514.9z"/>
			<path fill="#97BF4E" d="M522.4,73.9h3.5c1.5,0,2.9,0.7,2.9,2.6c0,1.5-1.3,2.5-2.7,2.5h-0.1c0.8,0.8,1.9,2.5,3.1,2.5
				c0.3,0,0.7-0.1,1.1-0.3l0.1,0.7c-0.3,0.2-0.8,0.3-1.3,0.3c-1.8,0-3.1-2.6-4-3.2h-1.7v3.1h-0.8V73.9z M523.2,74.6v3.7h2.8
				c1.1,0,2-0.7,2-1.8c0-1.3-0.9-1.9-2-1.9H523.2z"/>
			<path fill="#97BF4E" d="M531.5,73.9h0.8v8.2h-0.8V73.9z"/>
			<path fill="#97BF4E" d="M542,80.9c-0.7,0.7-2,1.3-3.3,1.3c-2.4,0-4.1-1.6-4.1-4.2c0-2.7,1.7-4.2,4.1-4.2c2.1,0,3.3,1.2,3.3,3.1
				l-0.8,0.2c0-1.5-0.9-2.5-2.6-2.5c-2,0-3.3,1.3-3.3,3.4c0,2.1,1.3,3.4,3.3,3.4c1.2,0,2.3-0.6,2.9-1.2L542,80.9z"/>
			<path fill="#97BF4E" d="M544.1,73.9h0.8v8.2h-0.8V73.9z"/>
			<path fill="#97BF4E" d="M548.4,75.2v6.8h-0.8v-8.2h0.7l5.8,6.9v-6.9h0.8v8.2h-0.7L548.4,75.2z"/>
			<path fill="#97BF4E" d="M564.8,77.7v3.4c-0.8,0.6-2.1,1.1-3.4,1.1c-2.4,0-4.3-1.6-4.3-4.2c0-2.7,1.9-4.2,4.3-4.2
				c1.3,0,2.3,0.4,3.1,1.2l-0.4,0.6c-0.7-0.6-1.5-1-2.7-1c-2,0-3.5,1.3-3.5,3.4c0,2.1,1.6,3.4,3.5,3.4c1,0,1.9-0.3,2.5-0.7v-2.2
				h-2.9v-0.7H564.8z"/>
		</g>
		<g id="rIVfB7_6_">
			<g>
				<path fill="#F8F8F4" d="M25,90c-2,0-3,0-4.4,0c-0.6,0-0.9-0.4-1.1-1c-0.3-0.9-0.4-2-0.7-2.9c-0.3-1-0.7-2.1-1.1-3.1
					c-0.8-1.8-1.8-3.6-2.5-5.5c-0.8-1.9-1-3.9-0.5-5.9c0.8-3.2,2.8-5.4,6-6.3c2.9-0.8,5.7-0.7,8.5,0.3c3.7,1.4,5.6,4.6,5.3,8.5
					c-0.1,1.9-0.7,3.7-1.6,5.5c-0.8,1.8-1.7,3.6-2.5,5.4c-0.4,1-0.5,2-0.8,3.1c-0.1,0.2-0.1,0.4-0.2,0.7c-0.2,0.6-0.3,0.9-1,0.9
					c-1.3,0-2.7,0-3.7,0C25,89.6,25,90,25,90z"/>
				<path fill="#F8F8F4" d="M25,93.9c-2,0-3.1,0-4.5,0c-0.6,0-0.8-0.1-0.9-0.7c0-0.4-0.1-0.9-0.1-1.3c0-0.7,0.1-0.8,0.8-0.8
					c2.2,0,4.3,0,6.5,0c0.7,0,1.5,0,2.2,0c0.5,0,0.7,0.2,0.7,0.7c0,0.5,0,1,0,1.5c0,0.5,0,0.7-0.5,0.7C27.7,93.9,26,93.9,25,93.9
					C25,93.9,25,93.9,25,93.9z"/>
				<path fill="#F8F8F4" d="M25,98.2c-2,0-3.1,0-4.5,0c-0.6,0-0.9-0.1-0.9-0.8c0-0.5-0.1-0.9-0.1-1.4c0-0.5,0.2-0.7,0.7-0.7
					c2.9,0,5.9,0,8.8,0c0.5,0,0.7,0.2,0.7,0.7c0,0.5,0,0.9,0,1.4c0,0.6,0,0.8-0.6,0.8C27.7,98.2,26,98.2,25,98.2
					C25,98.2,25,98.2,25,98.2z"/>
				<path fill="#F8F8F4" d="M31.6,63.5c0.1-0.3,0.2-0.7,0.4-1c0.7-1.1,1.3-2.1,2-3.2c0.4-0.6,1.1-0.8,1.7-0.5
					c0.5,0.2,0.7,0.9,0.5,1.6c-0.1,0.2-0.1,0.3-0.2,0.5c-0.7,1.1-1.4,2.2-2.2,3.2c-0.3,0.5-1,0.7-1.4,0.6
					C32,64.6,31.6,64.1,31.6,63.5z"/>
				<path fill="#F8F8F4" d="M14.2,58.7c0.5,0,0.8,0.2,1,0.6c0.7,1.1,1.4,2.2,2.1,3.2c0.5,0.7,0.4,1.5-0.1,1.9
					c-0.5,0.4-1.3,0.4-1.7-0.2c-0.8-1.2-1.6-2.4-2.4-3.6C12.6,59.8,13.2,58.7,14.2,58.7z"/>
				<path fill="#F8F8F4" d="M38.1,77c1.1,0.2,2.3,0.4,3.5,0.6c0.2,0,0.5,0.1,0.7,0.1c0.9,0.3,1.1,1.1,0.5,1.8
					c-0.4,0.4-0.9,0.7-1.5,0.6c-1.2-0.2-2.4-0.4-3.6-0.6c-0.1,0-0.2,0-0.2-0.1c-0.7-0.2-1.2-0.8-1-1.4C36.6,77.4,37.1,77,38.1,77z"
					/>
				<path fill="#F8F8F4" d="M7.4,80.2c-0.3-0.2-0.7-0.3-1-0.7c-0.7-0.7-0.3-1.7,0.6-1.8c1.4-0.3,2.7-0.5,4.1-0.7
					c0.4,0,0.9,0.1,1.2,0.3c0.7,0.5,0.6,1.5-0.2,1.9c-0.3,0.2-0.6,0.2-0.9,0.3C10,79.7,8.8,79.9,7.4,80.2z"/>
				<path fill="#F8F8F4" d="M11.2,70.9c-0.3-0.1-0.5-0.1-0.8-0.2c-1.1-0.4-2.2-0.9-3.3-1.4c-0.3-0.1-0.5-0.3-0.7-0.5
					c-0.3-0.4-0.5-0.8-0.2-1.3c0.3-0.5,0.7-0.7,1.2-0.7c0.2,0,0.5,0.1,0.7,0.2c1.1,0.5,2.3,1,3.4,1.6c0.8,0.4,1,1,0.8,1.7
					C12.1,70.7,11.8,70.8,11.2,70.9z"/>
				<path fill="#F8F8F4" d="M38,70.9c-0.4,0-0.8-0.1-1-0.5c-0.2-0.5-0.3-0.9,0.1-1.4c0.2-0.2,0.4-0.4,0.7-0.5
					c1.1-0.5,2.2-1.1,3.3-1.6c0.5-0.2,1.1-0.3,1.6,0.1c0.6,0.5,0.6,1.2,0,1.8c-0.2,0.2-0.4,0.4-0.7,0.5c-1.1,0.5-2.1,0.9-3.2,1.4
					C38.6,70.8,38.3,70.8,38,70.9z"/>
				<path fill="#F8F8F4" d="M23.4,60c0-1,0-1.5,0-2.2c0-0.8,0.5-1.5,1.2-1.5c0.7,0,1.2,0.4,1.3,1.2c0,1.4,0,2.7,0,4
					c0,0.5-0.2,1-0.7,1.2c-0.8,0.4-1.6,0-1.7-1C23.4,61.2,23.4,60,23.4,60C23.4,60,23.4,60,23.4,60z"/>
			</g>
		</g>
		<g>
			<path fill="#F8F8F4" d="M179.8,83.1c0.8,0,1.4,0.1,1.9,0.2c0.3,0.1,0.5,0.2,0.5,0.4c0,0.2-0.5,0.5-1.3,0.8
				c-0.3,0.1-0.6,0.2-0.9,0.3L179.8,83.1z"/>
			<path fill="#F8F8F4" d="M178.2,83.1l0.3,2c-0.4,0.1-0.9,0.1-1.3,0.2c-0.8,0.1-1.5,0.1-2.2,0.1l-0.3-2c0.5,0,1,0,1.5-0.1
				C176.9,83.2,177.6,83.1,178.2,83.1z"/>
			<path fill="#F8F8F4" d="M176.7,80.3c-0.9,0.1-1.7,0.1-2.4,0.2l-0.3-2c0.2,0,0.5-0.1,0.8-0.1c0.6-0.1,1.1-0.1,1.7-0.1
				c0.4,0,0.7,0,1.1,0l0.3,1.9c-0.1,0-0.1,0-0.2,0L176.7,80.3z"/>
			<path fill="#F8F8F4" d="M173.3,85.8C173.3,85.8,173.3,85.8,173.3,85.8c-0.1,0-0.2,0-0.4,0C173.1,85.8,173.2,85.8,173.3,85.8z"/>
			<path fill="#F8F8F4" d="M172.3,80.5c-0.9,0-1.4-0.2-1.5-0.6c0-0.1,0.1-0.3,0.3-0.5c0.3-0.3,0.8-0.5,1.3-0.7l0.2,1.8
				C172.6,80.5,172.4,80.5,172.3,80.5z"/>
			<path fill="#F8F8F4" d="M170.8,70.1c0.2-0.4,0.4-0.8,0.5-1.2c0.1-0.3,0.2-0.5,0.2-0.8c0-0.3-0.2-0.5-0.3-0.7c-1.3-2-2.6-4-3.9-6
				c1.4-0.7,3-0.9,4.5-0.6c0-0.5,0.1-1,0.1-1.5c2.4-0.6,4.9-0.6,7.3-0.1c-0.1,0.2-0.2,0.5-0.2,0.8c0.9-0.3,2-0.2,2.9,0.2
				c-0.2,0-0.4,0.8-0.3,0.9c0.1,0.2,0.2,0.3,0.4,0.3c-0.4,0.3-0.4,1-0.5,1.5c-0.2,0.7-0.6,1.4-0.9,2c-0.6,1-1.3,2-1.7,3.1
				c-0.3,0.8-0.9,1.5,0.1,2.2v0l-0.4,0.1c0,0-0.1-0.1-0.1-0.1c-0.2-0.4-0.3-0.6-0.6-0.5c-0.3,0.2-1,0.5-1.5,0.6
				c-0.6,0.1-4.2,0.2-4.2,0.2s-0.3,0-0.4,0.2L170.8,70.1z"/>
			<path fill="#F8F8F4" d="M169.3,86.3c-1.3,0.6-1.8,1.9-0.4,2c1.3,0.1,2.9-0.6,4.4-0.7c0,0.4,0.1,1.2,0.1,1.7c0,0.1,0,0.1,0,0.1
				c0,0.3,0.1,0.6,0.1,0.9c0.1,0.4,0.9,2.4,1.7,1.5c0,0,0,0,0,0c0,0,0,0,0,0c0-0.3,0-0.5,0-0.8c0,0,0,0,0,0c-0.1-0.1,0-0.5,0-0.6
				c0-0.1,0-0.2,0-0.3c0-0.3-0.1-2.9-0.1-2.9c1.2-0.2,2.3-0.3,3.5-0.5c0.3,0.5,0.3,1,0.2,1.6c0,0.5-0.1,1.1,0.2,1.6
				c0.3,0.5,1,0.7,1.4,0.3c0.3-0.3,0.2-0.7,0.2-1.1c-0.1-0.9-0.3-1.9-0.4-2.8c1.2-0.3,2.4-0.5,3.4-1.2c1-0.7,1.7-2,1.3-3.1
				c-0.3-1-1.3-1.7-2.3-1.9c-1-0.2-2.1-0.1-3.2,0.1c-0.1-0.6-0.1-1.2-0.2-1.7c1.5,0.5,3.4,1,4.5-0.2c0.3-0.3,0.5-0.7,0.3-1
				c-0.2-0.3-0.6-0.4-0.9-0.4c-1.4-0.1-2.8-0.3-4.2-0.4c-0.1-0.9-0.2-1.8-0.3-2.7c0-0.3-0.1-0.7-0.4-0.9c-0.4-0.3-1.1,0-1.2,0.5
				c-0.2,0.5,0,1,0.1,1.5c0.2,0.5,0.3,1,0.2,1.5c-1.2,0-2.4,0-3.5,0.2c-0.2-0.4-0.2-1-0.2-1.5c0-0.5,0-1.1-0.3-1.5
				c-0.3-0.4-1-0.6-1.3-0.2c-0.2,0.3-0.2,0.6-0.1,0.9c0.1,0.9,0.2,1.8,0.4,2.6c-1.5,0.2-2.9,1.1-3.7,2.4c-0.2,0.3-0.4,0.7-0.5,1.1
				c0,0.4,0.1,0.7,0.1,1.1c0.2,0.3,0.5,0.6,0.8,0.8c1.2,0.8,2.7,0.9,4.1,1c0,0,0.2,1.4,0.2,1.5c0.1,0.3,0.1,0.7,0.1,1
				c-0.1,0-0.2,0-0.4,0C171.7,85.8,170.4,85.8,169.3,86.3z M167.5,95.4c-0.6-0.1-1.2-0.1-1.7-0.2c-0.7-0.1-1.4-0.3-2.1-0.5
				c-0.3-0.1-0.7-0.2-1-0.3c-0.3-0.1-0.7-0.4-1-0.4c-1.4-0.6-2.7-1.4-3.2-2.9c-0.2-0.7-0.3-1.4-0.4-2.1c-0.3-2.8-0.6-6.2,0.8-8.8
				c0.7-1.4,1.9-2.4,3.1-3.2c2.3-1.6,4.7-3,7.1-4.4c0.3-0.2,0.8-0.5,1-0.7c0.2-0.3,0.3-0.6,0.5-0.9c0.1-0.3,0.3-0.6,0.4-1l0.9,0.4
				c0,0,0,0.1,0,0.1c0.1,0.3,0.3,0.5,0.4,0.6c0.1,0,0.6,0,1.3,0c0.7,0,1.6,0,2.4,0c1.6,0,1.8-0.2,2.1-0.5c0.3-0.2,0.6-0.3,0.5-0.6
				l0.3-0.1c0.3,0.6,0.7,1,1.2,1.4c0.8,0.6,1.8,0.8,2.7,1.2c4.9,1.7,9,5.2,10.5,10.3c0.9,3.1,0.8,6.4-0.1,9.4
				c-0.2,0.6-0.4,1.5-0.8,2c-0.5,0.5-1.3,0.6-2,0.7c-0.9,0.2-1.8,0.2-2.7,0.3c-1.7,0.2-3.3,0.4-5,0.4c-3.4,0.2-6.7,0.1-10.1,0
				c-0.7,0-1.5-0.1-2.2-0.1C169.3,95.5,168.4,95.5,167.5,95.4z"/>
		</g>
		<path fill="#F8F8F4" d="M315,78v-4h-2c0.1-2,1-1.9,2-2v-1.6c-1,0-2.6,0.1-3.7,0.9c-1,0.8-1.3,1.9-1.3,2.9V78H315z M321,70.4
			c-4,0.1-4,2.7-5,4V78h5v-4h-1.8c0-1-0.2-1.8,1.8-2V70.4z M325.8,90.3c-2.3,2.7-4.5,5.2-6.8,7.9c-0.1,0-0.1-0.1-0.2-0.1h0
			c-0.1,0-0.2,0.1-0.3,0.1c-0.3-0.2-0.4-0.3-0.4-0.6c0-2.3,0-4.7,0-7c0-0.1,0-0.3,0-0.4c-1,0-2.6,0-4,0c-0.6,0-1.1,0-1.7-0.1
			c-2.7-0.5-4.3-2.1-5.1-4.7c-0.1-0.4-0.3-0.8-0.3-1.2V71.5c0-0.1,0.1-0.1,0.1-0.2c0.3-2.3,1.4-4.3,3.5-5.4c0.6-0.3,1.4,0.1,2-0.9
			h-0.2c0,0,0.1,0.2,0.1,0.2c10.2,0,12.2,0.1,22.3,0.1c0,0,0.1,0.1,0.1,0.1c0,0,0.1,0.1,0.1,0.1c0,0,0.1,0.1,0.1,0.1
			c0.1,0,0.1,0,0.2,0c2.4,0.5,4.1,1.8,5,4.1c0.2,0.6,0.6,1.3,0.6,1.9V84c0,0.2-0.2,0.4-0.3,0.7c-0.5,3.1-3.2,5.4-6.4,5.4
			c-5.4,0-2.6,0-8.1,0C326.1,90,325.9,90.1,325.8,90.3z M326,85.6c4-0.1,4-2.7,4-4V78h-4v4h1.6c0,1,0.4,1.7-1.6,2V85.6z M332,84v1.6
			c1,0,2.7-0.1,3.7-0.8c1-0.8,0.3-1.9,1.3-2.9V78h-5v4h1.9C333.8,83,333,83.8,332,84z"/>
		<rect y="106" opacity="0" fill="#676767" width="146" height="51"/>
		<rect x="150" y="106" opacity="0" fill="#676767" width="146" height="51"/>
		<rect x="300" y="106" opacity="0" fill="#676767" width="146" height="51"/>
		<rect x="450" y="106" opacity="0" fill="#676767" width="146" height="51"/>
		<path fill="#97BF4E" d="M43,157H0v-51h43c2.8,0,5,2.2,5,5v41C48,154.8,45.8,157,43,157z"/>
		<path fill="#97BF4E" d="M193,157h-43v-51h43c2.8,0,5,2.2,5,5v41C198,154.8,195.8,157,193,157z"/>
		<path fill="#97BF4E" d="M343,157h-43v-51h43c2.8,0,5,2.2,5,5v41C348,154.8,345.8,157,343,157z"/>
		<path fill="#97BF4E" d="M493,157h-43v-51h43c2.8,0,5,2.2,5,5v41C498,154.8,495.8,157,493,157z"/>
		<g id="_x38_ZUheL_11_">
			<g>
				<path fill="#F8F8F4" d="M468.6,113c0.2,0,0.3,0,0.5,0c0.1,0,0.2-0.1,0.3-0.1c2.6,0.8,4.9,2.2,6.7,4.3c0.1,0.1,0.3,0.1,0.5,0.1
					c1-0.1,1.9-0.3,2.9-0.5c0.9-0.1,1.8-0.3,2.7-0.4c0.6-0.1,0.9,0.1,1.2,0.7c0.1,0.2,0.1,0.3,0.2,0.5c1.3,3.2,2.5,6.5,3.8,9.7
					c0.2,0.5,0.2,0.9-0.1,1.4c-1.1,1.9-2.2,3.9-3.3,5.8c-3,5.2-6,10.5-9,15.7c-0.2,0.3-0.4,0.8-0.7,0.8c-0.1,0-0.3,0-0.4,0
					c-0.2,0-0.4-0.2-0.6-0.3c-3.5-2-6.9-4-10.4-6c-1.5-0.9-3.1-1.8-4.6-2.7c-0.6-0.4-0.8-0.8-0.4-1.4c1.1-1.9,2.2-3.8,3.3-5.8
					c1.8-3.2,3.7-6.4,5.5-9.6c1.3-2.2,2.5-4.4,3.8-6.5c0.2-0.3,0.4-0.5,0.8-0.6c0.3,0,0.6-0.1,0.9-0.2c0.3,0,0.5,0,0.7,0.2
					c1.3,1.2,2.4,2.5,3.2,4.1c0.1,0.1,0.1,0.3,0,0.5c-0.4,1.5,0.1,2.8,1.4,3.6c1.5,0.9,3.6,0.2,4.3-1.4c0.6-1.4,0-3.1-1.2-4
					c-0.6-0.4-1.2-0.5-1.9-0.4c0.1,0.3,0.2,0.5,0.3,0.7c0.3,0.6,0.5,1.3,0.7,1.9c0.2,0.5-0.3,1-0.8,1c-0.4,0-0.7-0.2-0.9-0.7
					c-0.5-1.3-1.1-2.5-1.9-3.7c-1.3-2-3.1-3.6-5.3-4.7c-0.6-0.3-1.3-0.5-2-0.8c-0.3-0.1-0.6,0-0.7-0.3
					C467.8,113.5,468,113,468.6,113z M472.1,142.7C472.1,142.6,472.1,142.6,472.1,142.7c1.2,0,2.1-0.4,2.8-1.3
					c1.1-1.4,1.3-2.9,0.2-4.4c-0.5-0.7-1.2-1.3-1.9-2c-0.5-0.5-1.1-1-1.6-1.6c-0.3-0.4-0.3-0.8-0.1-1.2c0.2-0.4,0.6-0.5,1.1-0.4
					c0.7,0.2,1.2,0.5,1.8,0.9c0.6,0.4,0.8,0.9,0.6,1.6c-0.1,0.3,0,0.5,0.3,0.6c0.6,0.3,1.1,0.6,1.7,0.9c0.3,0.2,0.7,0,0.7-0.3
					c0.1-0.5,0.2-1,0.2-1.4c-0.1-1.2-0.7-2.2-1.7-2.9c-0.5-0.3-0.5-0.4-0.3-0.9c0.1-0.3,0-0.5-0.3-0.7c-0.4-0.2-0.7-0.6-1.2-0.3
					c0,0-0.1,0.1-0.1,0.1c-0.4,0.5-0.5,0.5-1,0.3c-0.8-0.3-1.6-0.4-2.4-0.3c-1.7,0.3-3,1.8-2.9,3.5c0.1,1,0.6,1.8,1.2,2.4
					c0.7,0.7,1.5,1.4,2.2,2.1c0.3,0.3,0.6,0.6,0.8,0.9c0.3,0.4,0.2,0.8-0.1,1.2c-0.3,0.4-0.7,0.5-1.1,0.4c-0.5-0.2-1.1-0.4-1.6-0.7
					c-1.1-0.6-1.3-1.2-0.9-2.1c0.1-0.3,0-0.5-0.3-0.7c-0.6-0.3-1.1-0.6-1.7-0.9c-0.4-0.2-0.7-0.1-0.9,0.4c-0.5,1.2-0.3,2.4,0.4,3.5
					c0.3,0.5,0.8,0.9,1.3,1.3c0.4,0.3,0.4,0.5,0.2,0.9c-0.3,0.7-0.3,0.8,0.4,1.2c0,0,0.1,0,0.1,0.1c0.5,0.2,0.7,0.2,0.9-0.3
					c0.3-0.5,0.4-0.6,1-0.4C470.9,142.4,471.5,142.5,472.1,142.7z"/>
			</g>
		</g>
		<g id="rIVfB7_5_">
			<g>
				<path fill="#F8F8F4" d="M25,143c-2,0-3,0-4.4,0c-0.6,0-0.9-0.4-1.1-1c-0.3-0.9-0.4-2-0.7-2.9c-0.3-1-0.7-2.1-1.1-3.1
					c-0.8-1.8-1.8-3.6-2.5-5.5c-0.8-1.9-1-3.9-0.5-5.9c0.8-3.2,2.8-5.4,6-6.3c2.9-0.8,5.7-0.7,8.5,0.3c3.7,1.4,5.6,4.6,5.3,8.5
					c-0.1,1.9-0.7,3.7-1.6,5.5c-0.8,1.8-1.7,3.6-2.5,5.4c-0.4,1-0.5,2-0.8,3.1c-0.1,0.2-0.1,0.4-0.2,0.7c-0.2,0.6-0.3,0.9-1,0.9
					c-1.3,0-2.7,0-3.7,0C25,142.6,25,143,25,143z"/>
				<path fill="#F8F8F4" d="M25,146.9c-2,0-3.1,0-4.5,0c-0.6,0-0.8-0.1-0.9-0.7c0-0.4-0.1-0.9-0.1-1.3c0-0.7,0.1-0.8,0.8-0.8
					c2.2,0,4.3,0,6.5,0c0.7,0,1.5,0,2.2,0c0.5,0,0.7,0.2,0.7,0.7c0,0.5,0,1,0,1.5c0,0.5,0,0.7-0.5,0.7C27.7,146.9,26,146.9,25,146.9
					C25,146.9,25,146.9,25,146.9z"/>
				<path fill="#F8F8F4" d="M25,151.2c-2,0-3.1,0-4.5,0c-0.6,0-0.9-0.1-0.9-0.8c0-0.5-0.1-0.9-0.1-1.4c0-0.5,0.2-0.7,0.7-0.7
					c2.9,0,5.9,0,8.8,0c0.5,0,0.7,0.2,0.7,0.7c0,0.5,0,0.9,0,1.4c0,0.6,0,0.8-0.6,0.8C27.7,151.2,26,151.2,25,151.2
					C25,151.2,25,151.2,25,151.2z"/>
				<path fill="#F8F8F4" d="M31.6,116.5c0.1-0.3,0.2-0.7,0.4-1c0.7-1.1,1.3-2.1,2-3.2c0.4-0.6,1.1-0.8,1.7-0.5
					c0.5,0.2,0.7,0.9,0.5,1.6c-0.1,0.2-0.1,0.3-0.2,0.5c-0.7,1.1-1.4,2.2-2.2,3.2c-0.3,0.5-1,0.7-1.4,0.6
					C32,117.6,31.6,117.1,31.6,116.5z"/>
				<path fill="#F8F8F4" d="M14.2,111.7c0.5,0,0.8,0.2,1,0.6c0.7,1.1,1.4,2.2,2.1,3.2c0.5,0.7,0.4,1.5-0.1,1.9
					c-0.5,0.4-1.3,0.4-1.7-0.2c-0.8-1.2-1.6-2.4-2.4-3.6C12.6,112.8,13.2,111.7,14.2,111.7z"/>
				<path fill="#F8F8F4" d="M38.1,130c1.1,0.2,2.3,0.4,3.5,0.6c0.2,0,0.5,0.1,0.7,0.1c0.9,0.3,1.1,1.1,0.5,1.8
					c-0.4,0.4-0.9,0.7-1.5,0.6c-1.2-0.2-2.4-0.4-3.6-0.6c-0.1,0-0.2,0-0.2-0.1c-0.7-0.2-1.2-0.8-1-1.4C36.6,130.4,37.1,130,38.1,130
					z"/>
				<path fill="#F8F8F4" d="M7.4,133.2c-0.3-0.2-0.7-0.3-1-0.7c-0.7-0.7-0.3-1.7,0.6-1.8c1.4-0.3,2.7-0.5,4.1-0.7
					c0.4,0,0.9,0.1,1.2,0.3c0.7,0.5,0.6,1.5-0.2,1.9c-0.3,0.1-0.6,0.2-0.9,0.3C10,132.7,8.8,132.9,7.4,133.2z"/>
				<path fill="#F8F8F4" d="M11.2,123.9c-0.3-0.1-0.5-0.1-0.8-0.2c-1.1-0.4-2.2-0.9-3.3-1.4c-0.3-0.1-0.5-0.3-0.7-0.5
					c-0.3-0.4-0.5-0.8-0.2-1.3c0.3-0.5,0.7-0.7,1.2-0.7c0.2,0,0.5,0.1,0.7,0.2c1.1,0.5,2.3,1,3.4,1.6c0.8,0.4,1,1,0.8,1.7
					C12.1,123.7,11.8,123.8,11.2,123.9z"/>
				<path fill="#F8F8F4" d="M38,123.9c-0.4,0-0.8-0.1-1-0.5c-0.2-0.5-0.3-0.9,0.1-1.4c0.2-0.2,0.4-0.4,0.7-0.5
					c1.1-0.5,2.2-1.1,3.3-1.6c0.5-0.2,1.1-0.3,1.6,0.1c0.6,0.5,0.6,1.2,0,1.8c-0.2,0.2-0.4,0.4-0.7,0.5c-1.1,0.5-2.1,0.9-3.2,1.4
					C38.6,123.8,38.3,123.8,38,123.9z"/>
				<path fill="#F8F8F4" d="M23.4,113c0-1,0-1.5,0-2.2c0-0.8,0.5-1.5,1.2-1.5c0.7,0,1.2,0.4,1.3,1.2c0,1.4,0,2.7,0,4
					c0,0.5-0.2,1-0.7,1.2c-0.8,0.4-1.6,0-1.7-1C23.4,114.2,23.4,113,23.4,113C23.4,113,23.4,113,23.4,113z"/>
			</g>
		</g>
		<g>
			<path fill="#F8F8F4" d="M179.8,136.1c0.8,0,1.4,0.1,1.9,0.2c0.3,0.1,0.5,0.2,0.5,0.4c0,0.2-0.5,0.5-1.3,0.8
				c-0.3,0.1-0.6,0.2-0.9,0.3L179.8,136.1z"/>
			<path fill="#F8F8F4" d="M178.2,136.1l0.3,2c-0.4,0.1-0.9,0.1-1.3,0.2c-0.8,0.1-1.5,0.1-2.2,0.1l-0.3-2c0.5,0,1,0,1.5-0.1
				C176.9,136.2,177.6,136.1,178.2,136.1z"/>
			<path fill="#F8F8F4" d="M176.7,133.3c-0.9,0.1-1.7,0.1-2.4,0.2l-0.3-2c0.2,0,0.5-0.1,0.8-0.1c0.6-0.1,1.1-0.1,1.7-0.1
				c0.4,0,0.7,0,1.1,0l0.3,1.9c-0.1,0-0.1,0-0.2,0L176.7,133.3z"/>
			<path fill="#F8F8F4" d="M173.3,138.8C173.3,138.8,173.3,138.8,173.3,138.8c-0.1,0-0.2,0-0.4,0
				C173.1,138.8,173.2,138.8,173.3,138.8z"/>
			<path fill="#F8F8F4" d="M172.3,133.5c-0.9,0-1.4-0.2-1.5-0.6c0-0.1,0.1-0.3,0.3-0.5c0.3-0.3,0.8-0.5,1.3-0.7l0.2,1.8
				C172.6,133.5,172.4,133.5,172.3,133.5z"/>
			<path fill="#F8F8F4" d="M170.8,123.1c0.2-0.4,0.4-0.8,0.5-1.2c0.1-0.3,0.2-0.5,0.2-0.8c0-0.3-0.2-0.5-0.3-0.7c-1.3-2-2.6-4-3.9-6
				c1.4-0.7,3-0.9,4.5-0.6c0-0.5,0.1-1,0.1-1.5c2.4-0.6,4.9-0.6,7.3-0.1c-0.1,0.2-0.2,0.5-0.2,0.8c0.9-0.3,2-0.2,2.9,0.2
				c-0.2,0-0.4,0.8-0.3,0.9c0.1,0.2,0.2,0.3,0.4,0.3c-0.4,0.3-0.4,1-0.5,1.5c-0.2,0.7-0.6,1.4-0.9,2c-0.6,1-1.3,2-1.7,3.1
				c-0.3,0.8-0.9,1.5,0.1,2.2v0l-0.4,0.1c0,0-0.1-0.1-0.1-0.1c-0.2-0.4-0.3-0.6-0.6-0.5c-0.3,0.2-1,0.5-1.5,0.6
				c-0.6,0.1-4.2,0.2-4.2,0.2s-0.3,0-0.4,0.2L170.8,123.1z"/>
			<path fill="#F8F8F4" d="M169.3,139.3c-1.3,0.6-1.8,1.9-0.4,2c1.3,0.1,2.9-0.6,4.4-0.7c0,0.4,0.1,1.2,0.1,1.7c0,0.1,0,0.1,0,0.1
				c0,0.3,0.1,0.6,0.1,0.9c0.1,0.4,0.9,2.4,1.7,1.5c0,0,0,0,0,0c0,0,0,0,0,0c0-0.3,0-0.5,0-0.8c0,0,0,0,0,0c-0.1-0.1,0-0.5,0-0.6
				c0-0.1,0-0.2,0-0.3c0-0.3-0.1-2.9-0.1-2.9c1.2-0.2,2.3-0.3,3.5-0.5c0.3,0.5,0.3,1,0.2,1.6c0,0.5-0.1,1.1,0.2,1.6
				c0.3,0.5,1,0.7,1.4,0.3c0.3-0.3,0.2-0.7,0.2-1.1c-0.1-0.9-0.3-1.9-0.4-2.8c1.2-0.3,2.4-0.5,3.4-1.2c1-0.7,1.7-2,1.3-3.1
				c-0.3-1-1.3-1.7-2.3-1.9c-1-0.2-2.1-0.1-3.2,0.1c-0.1-0.6-0.1-1.2-0.2-1.7c1.5,0.5,3.4,1,4.5-0.2c0.3-0.3,0.5-0.7,0.3-1
				c-0.2-0.3-0.6-0.4-0.9-0.4c-1.4-0.1-2.8-0.3-4.2-0.4c-0.1-0.9-0.2-1.8-0.3-2.7c0-0.3-0.1-0.7-0.4-0.9c-0.4-0.3-1.1,0-1.2,0.5
				c-0.2,0.5,0,1,0.1,1.5c0.2,0.5,0.3,1,0.2,1.5c-1.2,0-2.4,0-3.5,0.2c-0.2-0.4-0.2-1-0.2-1.5c0-0.5,0-1.1-0.3-1.5
				c-0.3-0.4-1-0.6-1.3-0.2c-0.2,0.3-0.2,0.6-0.1,0.9c0.1,0.9,0.2,1.8,0.4,2.6c-1.5,0.2-2.9,1.1-3.7,2.4c-0.2,0.3-0.4,0.7-0.5,1.1
				c0,0.4,0.1,0.7,0.1,1.1c0.2,0.3,0.5,0.6,0.8,0.8c1.2,0.8,2.7,0.9,4.1,1c0,0,0.2,1.4,0.2,1.5c0.1,0.3,0.1,0.7,0.1,1
				c-0.1,0-0.2,0-0.4,0C171.7,138.8,170.4,138.8,169.3,139.3z M167.5,148.4c-0.6-0.1-1.2-0.1-1.7-0.2c-0.7-0.1-1.4-0.3-2.1-0.5
				c-0.3-0.1-0.7-0.2-1-0.3c-0.3-0.1-0.7-0.4-1-0.4c-1.4-0.6-2.7-1.4-3.2-2.9c-0.2-0.7-0.3-1.4-0.4-2.1c-0.3-2.8-0.6-6.2,0.8-8.8
				c0.7-1.4,1.9-2.4,3.1-3.2c2.3-1.6,4.7-3,7.1-4.4c0.3-0.2,0.8-0.5,1-0.7c0.2-0.3,0.3-0.6,0.5-0.9c0.1-0.3,0.3-0.6,0.4-1l0.9,0.4
				c0,0,0,0.1,0,0.1c0.1,0.3,0.3,0.5,0.4,0.6c0.1,0,0.6,0,1.3,0c0.7,0,1.6,0,2.4,0c1.6,0,1.8-0.2,2.1-0.5c0.3-0.2,0.6-0.3,0.5-0.6
				l0.3-0.1c0.3,0.6,0.7,1,1.2,1.4c0.8,0.6,1.8,0.8,2.7,1.2c4.9,1.7,9,5.2,10.5,10.3c0.9,3.1,0.8,6.4-0.1,9.4
				c-0.2,0.6-0.4,1.5-0.8,2c-0.5,0.5-1.3,0.6-2,0.7c-0.9,0.2-1.8,0.2-2.7,0.3c-1.7,0.2-3.3,0.4-5,0.4c-3.4,0.2-6.7,0.1-10.1,0
				c-0.7,0-1.5-0.1-2.2-0.1C169.3,148.5,168.4,148.5,167.5,148.4z"/>
		</g>
		<path fill="#F8F8F4" d="M315,131v-4h-2c0.1-2,1-1.9,2-2v-1.6c-1,0-2.6,0.1-3.7,0.9c-1,0.8-1.3,1.9-1.3,2.9v3.9H315z M321,123.4
			c-4,0.1-4,2.7-5,4v3.6h5v-4h-1.8c0-1-0.2-1.8,1.8-2V123.4z M325.8,143.3c-2.3,2.7-4.5,5.2-6.8,7.9c-0.1,0-0.1-0.1-0.2-0.1h0
			c-0.1,0-0.2,0.1-0.3,0.1c-0.3-0.2-0.4-0.3-0.4-0.6c0-2.3,0-4.7,0-7c0-0.1,0-0.3,0-0.4c-1,0-2.6,0-4,0c-0.6,0-1.1,0-1.7-0.1
			c-2.7-0.5-4.3-2.1-5.1-4.7c-0.1-0.4-0.3-0.8-0.3-1.2v-12.5c0-0.1,0.1-0.1,0.1-0.2c0.3-2.3,1.4-4.3,3.5-5.4c0.6-0.3,1.4,0.1,2-0.9
			h-0.2c0,0,0.1,0.2,0.1,0.2c10.2,0,12.2,0.1,22.3,0.1c0,0,0.1,0.1,0.1,0.1c0,0,0.1,0.1,0.1,0.1c0,0,0.1,0.1,0.1,0.1
			c0.1,0,0.1,0,0.2,0c2.4,0.5,4.1,1.8,5,4.1c0.2,0.6,0.6,1.3,0.6,1.9V137c0,0.2-0.2,0.4-0.3,0.7c-0.5,3.1-3.2,5.4-6.4,5.4
			c-5.4,0-2.6,0-8.1,0C326.1,143,325.9,143.1,325.8,143.3z M326,138.6c4-0.1,4-2.7,4-4V131h-4v4h1.6c0,1,0.4,1.7-1.6,2V138.6z
			 M332,137v1.6c1,0,2.7-0.1,3.7-0.8c1-0.8,0.3-1.9,1.3-2.9V131h-5v4h1.9C333.8,136,333,136.8,332,137z"/>
	</g>
</g>
</svg>
